<svg xmlns="http://www.w3.org/2000/svg" version="1.1" xmlns:xlink="http://www.w3.org/1999/xlink" viewBox="0 0 200 200"><rect width="200" height="200" fill="url('#gradient')"></rect><defs><linearGradient id="gradient" gradientTransform="rotate(45 0.5 0.5)"><stop offset="0%" stop-color="#472027"></stop><stop offset="100%" stop-color="#192025"></stop></linearGradient></defs><g><g fill="#ffffff" transform="matrix(4.8087659796504045,0,0,4.8087659796504045,8.318493113485417,134.1897016238395)" stroke="#000000" stroke-width="0.2"><path d="M12.24-14.22L12.24-11.57L7.97-11.57L7.97 0L4.54 0L4.54-11.57L0.35-11.57L0.35-14.22L12.24-14.22ZM21.42 0L20.59-2.66L15.89-2.66L15.07 0L11.41 0L16.62-14.22L19.84-14.22L25.10 0L21.42 0ZM18.23-10.23L16.71-5.30L19.77-5.30L18.23-10.23ZM29.11-14.22L31.44-9.49L33.76-14.22L37.68-14.22L33.70-7.17L37.78 0L33.83 0L31.44-4.81L29.04 0L25.10 0L29.17-7.17L25.21-14.22L29.11-14.22Z"></path></g></g></svg>
